<svg xmlns="http://www.w3.org/2000/svg" xmlns:xlink="http://www.w3.org/1999/xlink" preserveAspectRatio="xMidYMid" width="20" height="20" viewBox="0 0 20 20">
  <defs>
    <style>
      .cls-1 {
        fill: #fff;
        fill-rule: evenodd;
      }
    </style>
  </defs>
  <path d="M20.004,16.247 L20.004,3.755 C20.004,1.685 18.324,0.007 16.253,0.007 L3.751,0.007 C1.680,0.007 -0.000,1.685 -0.000,3.755 L-0.000,16.247 C-0.000,18.317 1.680,19.995 3.751,19.995 L10.835,19.995 L10.835,12.083 L7.918,12.083 L7.918,9.168 L10.835,9.168 L10.835,7.008 C10.835,4.431 12.437,3.026 14.742,3.026 C15.836,3.026 16.670,3.104 17.087,3.143 L17.087,5.837 L15.367,5.850 C14.117,5.850 13.753,6.435 13.753,7.307 L13.753,9.168 L16.787,9.168 L16.396,12.083 L13.753,12.083 L13.753,19.995 L16.253,19.995 C18.324,19.995 20.004,18.317 20.004,16.247 Z" class="cls-1"/>
</svg>
