<svg xmlns="http://www.w3.org/2000/svg" xmlns:xlink="http://www.w3.org/1999/xlink" preserveAspectRatio="xMidYMid" width="20" height="20" viewBox="0 0 20 20">
  <defs>
    <style>
      .cls-1 {
        fill: #fff;
        fill-rule: evenodd;
      }
    </style>
  </defs>
  <path d="M5.131,15.935 C5.183,15.883 5.157,15.766 5.079,15.688 C4.988,15.597 4.871,15.584 4.819,15.649 C4.753,15.701 4.780,15.818 4.871,15.896 C4.962,15.987 5.079,16.000 5.131,15.935 ZM4.584,15.141 C4.532,15.050 4.428,15.011 4.363,15.063 C4.298,15.102 4.298,15.206 4.363,15.297 C4.428,15.388 4.532,15.427 4.584,15.388 L4.584,15.388 C4.649,15.336 4.649,15.232 4.584,15.141 ZM3.790,14.361 C3.816,14.308 3.777,14.243 3.699,14.204 C3.620,14.178 3.555,14.191 3.529,14.230 C3.503,14.282 3.542,14.347 3.620,14.387 C3.686,14.426 3.764,14.399 3.790,14.361 ZM4.193,14.803 C4.246,14.764 4.233,14.673 4.168,14.595 C4.102,14.530 4.011,14.504 3.959,14.556 C3.907,14.595 3.920,14.686 3.985,14.764 C4.050,14.829 4.141,14.855 4.193,14.803 ZM5.873,16.260 C5.900,16.182 5.821,16.091 5.704,16.052 C5.600,16.026 5.483,16.065 5.457,16.143 C5.431,16.221 5.509,16.313 5.626,16.339 C5.730,16.378 5.847,16.339 5.873,16.260 ZM6.694,16.325 C6.694,16.234 6.590,16.169 6.473,16.182 C6.355,16.182 6.264,16.247 6.264,16.325 C6.264,16.416 6.355,16.482 6.486,16.469 C6.603,16.469 6.694,16.404 6.694,16.325 ZM7.449,16.195 C7.436,16.117 7.332,16.065 7.215,16.078 C7.098,16.104 7.020,16.182 7.033,16.273 C7.046,16.351 7.150,16.404 7.267,16.378 C7.384,16.351 7.462,16.273 7.449,16.195 ZM20.004,3.755 C20.004,1.685 18.324,0.007 16.253,0.007 L3.751,0.007 C1.680,0.007 -0.000,1.685 -0.000,3.755 L-0.000,16.247 C-0.000,18.317 1.680,19.995 3.751,19.995 L6.668,19.995 C7.085,19.995 7.527,19.995 7.527,19.371 C7.527,19.136 7.514,17.978 7.514,17.145 C7.514,17.145 4.728,17.744 4.141,15.961 C4.141,15.961 3.686,14.803 3.034,14.504 C3.034,14.504 2.123,13.879 3.100,13.892 C3.100,13.892 4.089,13.970 4.636,14.920 C5.509,16.456 6.967,16.013 7.540,15.753 C7.632,15.102 7.892,14.673 8.179,14.413 C5.952,14.165 3.620,13.306 3.620,9.480 C3.620,8.387 4.011,7.489 4.649,6.800 C4.545,6.539 4.207,5.524 4.740,4.145 C5.587,3.885 7.501,5.173 7.501,5.173 C8.296,4.952 9.155,4.835 10.002,4.835 C10.848,4.835 11.708,4.952 12.502,5.173 C12.502,5.173 14.417,3.885 15.250,4.145 C15.797,5.524 15.459,6.539 15.354,6.800 C15.993,7.489 16.383,8.387 16.383,9.480 C16.383,13.319 14.039,14.165 11.812,14.413 C12.177,14.725 12.489,15.324 12.489,16.260 C12.489,17.601 12.489,19.045 12.489,19.371 C12.489,19.995 12.919,19.995 13.336,19.995 L16.253,19.995 C18.324,19.995 20.004,18.317 20.004,16.247 L20.004,3.755 Z" class="cls-1"/>
</svg>
