<svg xmlns="http://www.w3.org/2000/svg" xmlns:xlink="http://www.w3.org/1999/xlink" preserveAspectRatio="xMidYMid" width="20" height="20" viewBox="0 0 20 20">
  <defs>
    <style>
      .cls-1 {
        fill: #fff;
        fill-rule: evenodd;
      }
    </style>
  </defs>
  <path d="M17.738,16.898 C17.738,17.341 17.386,17.692 16.943,17.692 L3.021,17.692 C2.579,17.692 2.227,17.341 2.227,16.898 L2.227,8.465 L4.063,8.465 C3.894,8.999 3.803,9.585 3.803,10.170 C3.803,13.501 6.590,16.195 10.015,16.195 C13.453,16.195 16.240,13.501 16.240,10.170 C16.240,9.585 16.149,8.999 15.980,8.465 L17.738,8.465 L17.738,8.465 L17.738,16.898 ZM14.039,9.962 C14.039,12.109 12.242,13.853 10.015,13.853 C7.801,13.853 6.004,12.109 6.004,9.962 C6.004,7.815 7.801,6.071 10.015,6.071 C12.242,6.071 14.039,7.815 14.039,9.962 ZM17.738,5.277 C17.738,5.772 17.334,6.175 16.839,6.175 L14.573,6.175 C14.078,6.175 13.675,5.772 13.675,5.277 L13.675,3.130 C13.675,2.635 14.078,2.232 14.573,2.232 L14.573,2.232 L16.839,2.232 C17.334,2.232 17.738,2.635 17.738,3.130 L17.738,5.277 ZM20.004,2.570 C20.004,1.165 18.845,0.007 17.438,0.007 L2.566,0.007 L2.566,0.007 C1.159,0.007 0.000,1.165 0.000,2.570 L0.000,17.432 C0.000,18.837 1.159,19.995 2.566,19.995 L17.438,19.995 C18.845,19.995 20.004,18.837 20.004,17.432 L20.004,2.570 Z" class="cls-1"/>
</svg>
