<?xml version="1.0" encoding="utf-8"?>
<!-- Generator: Adobe Illustrator 19.1.0, SVG Export Plug-In . SVG Version: 6.00 Build 0)  -->
<!DOCTYPE svg PUBLIC "-//W3C//DTD SVG 1.1//EN" "http://www.w3.org/Graphics/SVG/1.1/DTD/svg11.dtd">
<svg version="1.1" id="Layer_1" xmlns="http://www.w3.org/2000/svg" xmlns:xlink="http://www.w3.org/1999/xlink" x="0px" y="0px"
	 viewBox="0 0 377.42 103.061" style="enable-background:new 0 0 377.42 103.061;" xml:space="preserve">
<g>
	<g>
		<g>
			<g>
				<g>
					
						<radialGradient id="SVGID_1_" cx="-193.252" cy="92.6616" r="81.6426" gradientTransform="matrix(1 0.3127 0 1 260.4849 -26.2542)" gradientUnits="userSpaceOnUse">
						<stop  offset="0" style="stop-color:#178AFF"/>
						<stop  offset="1" style="stop-color:#4F00D9"/>
					</radialGradient>
					<path style="fill:url(#SVGID_1_);" d="M130.732,15.699c-1.441-4.78-3.764-8.546-6.965-11.294
						c-3.203-2.746-7.258-4.213-12.16-4.391c-4.904-0.18-11.34,1.342-19.306,4.562L66.447,15.032v88.029l25.854-10.453
						c4.843-1.959,10.247-4.943,16.212-8.957c4.364-2.924,8.447-6.908,12.251-11.949c3.803-5.041,6.774-10.586,8.917-16.637
						c2.141-6.049,3.213-13.779,3.213-23.186C132.895,25.874,132.174,20.481,130.732,15.699z M107.562,45.737
						c-1.345,0.617-2.356,1.229-3.038,1.836c-0.682,0.606-1.266,1.4-1.754,2.379c-0.488,0.979-0.832,2.1-1.035,3.361
						c-0.147,0.942-0.221,2.5-0.221,4.672c0,3.571-0.161,6.131-0.483,7.681c-0.321,1.548-0.916,2.925-1.781,4.13
						c-0.866,1.207-2.136,2.397-3.811,3.57c-1.124,0.785-2.891,1.666-5.302,2.641l-1.465,0.592v-6.627
						c1.971-0.797,3.26-1.441,3.867-1.937c0.607-0.494,1.053-1.034,1.34-1.617c0.284-0.586,0.432-1.44,0.441-2.569
						c0.008-1.125,0.087-3.303,0.234-6.527c0.092-1.953,0.34-3.586,0.745-4.9c0.405-1.314,0.944-2.508,1.616-3.581
						c0.672-1.072,1.533-2.124,2.582-3.155c-1.363-0.334-2.357-0.797-2.982-1.391c-0.866-0.865-1.455-2.174-1.768-3.925
						c-0.203-1.206-0.35-3.983-0.441-8.327c-0.02-1.373-0.143-2.243-0.374-2.611c-0.229-0.365-0.644-0.553-1.241-0.56
						c-0.6-0.006-1.939,0.41-4.019,1.251v-6.6l1.465-0.591c2.484-1.006,4.391-1.583,5.715-1.73c1.326-0.15,2.44,0.058,3.342,0.623
						c0.902,0.564,1.516,1.458,1.837,2.681c0.322,1.222,0.483,3.288,0.483,6.197c0,3.368,0.139,5.515,0.414,6.433
						c0.405,1.311,1.021,2.115,1.851,2.414c0.829,0.301,2.089,0.154,3.783-0.439V45.737z"/>
				</g>
			</g>
			<path style="fill:#FFFFFF;" d="M107.562,45.737c-1.345,0.617-2.356,1.229-3.038,1.836c-0.682,0.606-1.266,1.4-1.754,2.379
				c-0.488,0.979-0.832,2.1-1.035,3.361c-0.147,0.942-0.221,2.5-0.221,4.672c0,3.571-0.161,6.131-0.483,7.681
				c-0.321,1.548-0.916,2.925-1.781,4.13c-0.866,1.207-2.136,2.397-3.811,3.57c-1.124,0.785-2.891,1.666-5.302,2.641l-1.465,0.592
				v-6.627c1.971-0.797,3.26-1.441,3.867-1.937c0.607-0.494,1.053-1.034,1.34-1.617c0.284-0.586,0.432-1.44,0.441-2.569
				c0.008-1.125,0.087-3.303,0.234-6.527c0.092-1.953,0.34-3.586,0.745-4.9c0.405-1.314,0.944-2.508,1.616-3.581
				c0.672-1.072,1.533-2.124,2.582-3.155c-1.363-0.334-2.357-0.797-2.982-1.391c-0.866-0.865-1.455-2.174-1.768-3.925
				c-0.203-1.206-0.35-3.983-0.441-8.327c-0.02-1.373-0.143-2.243-0.374-2.611c-0.229-0.365-0.644-0.553-1.241-0.56
				c-0.6-0.006-1.939,0.41-4.019,1.251v-6.6l1.465-0.591c2.484-1.006,4.391-1.583,5.715-1.73c1.326-0.15,2.44,0.058,3.342,0.623
				c0.902,0.564,1.516,1.458,1.837,2.681c0.322,1.222,0.483,3.288,0.483,6.197c0,3.368,0.139,5.515,0.414,6.433
				c0.405,1.311,1.021,2.115,1.851,2.414c0.829,0.301,2.089,0.154,3.783-0.439V45.737z"/>
		</g>
		<g>
			<g>
				<g>
					
						<radialGradient id="SVGID_2_" cx="1060.5488" cy="-324.1113" r="109.9403" gradientTransform="matrix(-1 0.3127 0 1 1120.8046 -26.2542)" gradientUnits="userSpaceOnUse">
						<stop  offset="0" style="stop-color:#FDF500"/>
						<stop  offset="1" style="stop-color:#FF2400"/>
					</radialGradient>
					<path style="fill:url(#SVGID_2_);" d="M40.593,4.577c-7.966-3.221-14.401-4.742-19.306-4.562
						c-4.902,0.178-8.957,1.644-12.16,4.391c-3.202,2.748-5.523,6.514-6.965,11.294C0.721,20.481,0,25.874,0,31.879
						c0,9.406,1.072,17.137,3.213,23.186c2.142,6.051,5.113,11.596,8.916,16.637c3.805,5.041,7.887,9.025,12.251,11.949
						c5.966,4.014,11.369,6.998,16.213,8.957l25.854,10.453V15.032L40.593,4.577z M44.222,30.121
						c-2.08-0.841-3.419-1.257-4.019-1.251c-0.598,0.008-1.012,0.195-1.242,0.56c-0.231,0.368-0.354,1.238-0.373,2.611
						c-0.092,4.344-0.238,7.121-0.441,8.327c-0.312,1.751-0.901,3.06-1.768,3.925c-0.625,0.594-1.619,1.057-2.982,1.391
						c1.049,1.031,1.91,2.083,2.582,3.155c0.672,1.073,1.211,2.267,1.615,3.581c0.405,1.314,0.654,2.947,0.746,4.9
						c0.148,3.225,0.227,5.402,0.234,6.527c0.01,1.129,0.156,1.983,0.441,2.569c0.286,0.583,0.732,1.123,1.34,1.617
						c0.608,0.495,1.897,1.14,3.866,1.937v6.627l-1.464-0.592c-2.411-0.975-4.179-1.855-5.302-2.641
						c-1.675-1.174-2.945-2.363-3.811-3.57c-0.864-1.205-1.459-2.582-1.78-4.13c-0.323-1.55-0.483-4.109-0.483-7.681
						c0-2.172-0.073-3.729-0.222-4.672c-0.202-1.262-0.547-2.382-1.034-3.361c-0.488-0.979-1.072-1.772-1.754-2.379
						c-0.682-0.607-1.693-1.219-3.039-1.836v-6.629c1.695,0.594,2.955,0.74,3.783,0.439c0.83-0.299,1.446-1.104,1.852-2.414
						c0.275-0.918,0.414-3.064,0.414-6.433c0-2.909,0.16-4.976,0.483-6.197c0.321-1.223,0.935-2.116,1.837-2.681
						c0.902-0.565,2.016-0.773,3.341-0.623c1.325,0.147,3.231,0.725,5.716,1.73l1.464,0.591V30.121z"/>
				</g>
			</g>
			<path style="fill:#FFFFFF;" d="M25.332,39.108c1.695,0.594,2.955,0.74,3.783,0.439c0.83-0.299,1.446-1.104,1.852-2.414
				c0.275-0.918,0.414-3.064,0.414-6.433c0-2.909,0.16-4.976,0.483-6.197c0.321-1.223,0.935-2.116,1.837-2.681
				c0.902-0.565,2.016-0.773,3.341-0.623c1.325,0.147,3.231,0.725,5.716,1.73l1.464,0.591v6.6c-2.08-0.841-3.419-1.257-4.019-1.251
				c-0.598,0.008-1.012,0.195-1.242,0.56c-0.231,0.368-0.354,1.238-0.373,2.611c-0.092,4.344-0.238,7.121-0.441,8.327
				c-0.312,1.751-0.901,3.06-1.768,3.925c-0.625,0.594-1.619,1.057-2.982,1.391c1.049,1.031,1.91,2.083,2.582,3.155
				c0.672,1.073,1.211,2.267,1.615,3.581c0.405,1.314,0.654,2.947,0.746,4.9c0.148,3.225,0.227,5.402,0.234,6.527
				c0.01,1.129,0.156,1.983,0.441,2.569c0.286,0.583,0.732,1.123,1.34,1.617c0.608,0.495,1.897,1.14,3.866,1.937v6.627l-1.464-0.592
				c-2.411-0.975-4.179-1.855-5.302-2.641c-1.675-1.174-2.945-2.363-3.811-3.57c-0.864-1.205-1.459-2.582-1.78-4.13
				c-0.323-1.55-0.483-4.109-0.483-7.681c0-2.172-0.073-3.729-0.222-4.672c-0.202-1.262-0.547-2.382-1.034-3.361
				c-0.488-0.979-1.072-1.772-1.754-2.379c-0.682-0.607-1.693-1.219-3.039-1.836V39.108z"/>
		</g>
	</g>
	<g>
		<path style="fill:#F6F6F6;" d="M155.975,13.231h3.943v3.945h-3.943V13.231z M155.975,17.176h3.943v3.944h-3.943V17.176z
			 M155.975,21.121h3.943v3.944h-3.943V21.121z M155.975,25.065h3.943v3.944h-3.943V25.065z M155.975,29.009h3.943v3.944h-3.943
			V29.009z M155.975,32.954h3.943v3.945h-3.943V32.954z M155.975,36.899h3.943v3.944h-3.943V36.899z M155.975,40.843h3.943v3.944
			h-3.943V40.843z M159.918,13.231h3.945v3.945h-3.945V13.231z M159.918,17.176h3.945v3.944h-3.945V17.176z M159.918,21.121h3.945
			v3.944h-3.945V21.121z M159.918,25.065h3.945v3.944h-3.945V25.065z M159.918,29.009h3.945v3.944h-3.945V29.009z M159.918,32.954
			h3.945v3.945h-3.945V32.954z M159.918,36.899h3.945v3.944h-3.945V36.899z M159.918,40.843h3.945v3.944h-3.945V40.843z
			 M163.863,13.231h3.944v3.945h-3.944V13.231z M163.863,17.176h3.944v3.944h-3.944V17.176z M163.863,36.899h3.944v3.944h-3.944
			V36.899z M163.863,40.843h3.944v3.944h-3.944V40.843z M167.808,13.231h3.944v3.945h-3.944V13.231z M167.808,17.176h3.944v3.944
			h-3.944V17.176z M167.808,36.899h3.944v3.944h-3.944V36.899z M167.808,40.843h3.944v3.944h-3.944V40.843z M171.752,13.231h3.945
			v3.945h-3.945V13.231z M171.752,17.176h3.945v3.944h-3.945V17.176z M171.752,36.899h3.945v3.944h-3.945V36.899z M171.752,40.843
			h3.945v3.944h-3.945V40.843z M175.697,13.231h3.944v3.945h-3.944V13.231z M175.697,17.176h3.944v3.944h-3.944V17.176z
			 M175.697,21.121h3.944v3.944h-3.944V21.121z M175.697,25.065h3.944v3.944h-3.944V25.065z M175.697,29.009h3.944v3.944h-3.944
			V29.009z M175.697,32.954h3.944v3.945h-3.944V32.954z M175.697,36.899h3.944v3.944h-3.944V36.899z M175.697,40.843h3.944v3.944
			h-3.944V40.843z M179.642,17.176h3.944v3.944h-3.944V17.176z M179.642,21.121h3.944v3.944h-3.944V21.121z M179.642,25.065h3.944
			v3.944h-3.944V25.065z M179.642,29.009h3.944v3.944h-3.944V29.009z M179.642,32.954h3.944v3.945h-3.944V32.954z M179.642,36.899
			h3.944v3.944h-3.944V36.899z"/>
		<path style="fill:#F6F6F6;" d="M188.279,13.231h3.945v3.945h-3.945V13.231z M188.279,17.176h3.945v3.944h-3.945V17.176z
			 M188.279,21.121h3.945v3.944h-3.945V21.121z M188.279,25.065h3.945v3.944h-3.945V25.065z M188.279,29.009h3.945v3.944h-3.945
			V29.009z M188.279,32.954h3.945v3.945h-3.945V32.954z M188.279,36.899h3.945v3.944h-3.945V36.899z M188.279,40.843h3.945v3.944
			h-3.945V40.843z M192.225,13.231h3.944v3.945h-3.944V13.231z M192.225,17.176h3.944v3.944h-3.944V17.176z M192.225,21.121h3.944
			v3.944h-3.944V21.121z M192.225,25.065h3.944v3.944h-3.944V25.065z M192.225,29.009h3.944v3.944h-3.944V29.009z M192.225,32.954
			h3.944v3.945h-3.944V32.954z M192.225,36.899h3.944v3.944h-3.944V36.899z M192.225,40.843h3.944v3.944h-3.944V40.843z
			 M196.169,13.231h3.944v3.945h-3.944V13.231z M196.169,17.176h3.944v3.944h-3.944V17.176z M196.169,25.065h3.944v3.944h-3.944
			V25.065z M196.169,29.009h3.944v3.944h-3.944V29.009z M200.113,13.231h3.945v3.945h-3.945V13.231z M200.113,17.176h3.945v3.944
			h-3.945V17.176z M200.113,25.065h3.945v3.944h-3.945V25.065z M200.113,29.009h3.945v3.944h-3.945V29.009z M204.059,13.231h3.943
			v3.945h-3.943V13.231z M204.059,17.176h3.943v3.944h-3.943V17.176z M204.059,25.065h3.943v3.944h-3.943V25.065z M204.059,29.009
			h3.943v3.944h-3.943V29.009z M208.002,13.231h3.945v3.945h-3.945V13.231z M208.002,17.176h3.945v3.944h-3.945V17.176z
			 M208.002,21.121h3.945v3.944h-3.945V21.121z M208.002,25.065h3.945v3.944h-3.945V25.065z M208.002,29.009h3.945v3.944h-3.945
			V29.009z M208.002,32.954h3.945v3.945h-3.945V32.954z M208.002,36.899h3.945v3.944h-3.945V36.899z M208.002,40.843h3.945v3.944
			h-3.945V40.843z M211.947,13.231h3.944v3.945h-3.944V13.231z M211.947,17.176h3.944v3.944h-3.944V17.176z M211.947,21.121h3.944
			v3.944h-3.944V21.121z M211.947,25.065h3.944v3.944h-3.944V25.065z M211.947,29.009h3.944v3.944h-3.944V29.009z M211.947,32.954
			h3.944v3.945h-3.944V32.954z M211.947,36.899h3.944v3.944h-3.944V36.899z M211.947,40.843h3.944v3.944h-3.944V40.843z"/>
		<path style="fill:#F6F6F6;" d="M220.586,13.231h3.943v3.945h-3.943V13.231z M220.586,17.176h3.943v3.944h-3.943V17.176z
			 M220.586,21.121h3.943v3.944h-3.943V21.121z M220.586,25.065h3.943v3.944h-3.943V25.065z M220.586,29.009h3.943v3.944h-3.943
			V29.009z M220.586,32.954h3.943v3.945h-3.943V32.954z M220.586,36.899h3.943v3.944h-3.943V36.899z M220.586,40.843h3.943v3.944
			h-3.943V40.843z M224.529,13.231h3.945v3.945h-3.945V13.231z M224.529,17.176h3.945v3.944h-3.945V17.176z M224.529,21.121h3.945
			v3.944h-3.945V21.121z M224.529,25.065h3.945v3.944h-3.945V25.065z M224.529,29.009h3.945v3.944h-3.945V29.009z M224.529,32.954
			h3.945v3.945h-3.945V32.954z M224.529,36.899h3.945v3.944h-3.945V36.899z M224.529,40.843h3.945v3.944h-3.945V40.843z
			 M228.475,36.899h3.944v3.944h-3.944V36.899z M228.475,40.843h3.944v3.944h-3.944V40.843z M232.419,36.899h3.944v3.944h-3.944
			V36.899z M232.419,40.843h3.944v3.944h-3.944V40.843z M236.363,36.899h3.945v3.944h-3.945V36.899z M236.363,40.843h3.945v3.944
			h-3.945V40.843z M240.309,36.899h3.944v3.944h-3.944V36.899z M240.309,40.843h3.944v3.944h-3.944V40.843z M244.253,36.899h3.944
			v3.944h-3.944V36.899z M244.253,40.843h3.944v3.944h-3.944V40.843z"/>
		<path style="fill:#F6F6F6;" d="M252.892,13.231h3.944v3.945h-3.944V13.231z M252.892,17.176h3.944v3.944h-3.944V17.176z
			 M252.892,21.121h3.944v3.944h-3.944V21.121z M252.892,25.065h3.944v3.944h-3.944V25.065z M252.892,29.009h3.944v3.944h-3.944
			V29.009z M252.892,32.954h3.944v3.945h-3.944V32.954z M252.892,36.899h3.944v3.944h-3.944V36.899z M252.892,40.843h3.944v3.944
			h-3.944V40.843z M256.836,13.231h3.945v3.945h-3.945V13.231z M256.836,17.176h3.945v3.944h-3.945V17.176z M256.836,21.121h3.945
			v3.944h-3.945V21.121z M256.836,25.065h3.945v3.944h-3.945V25.065z M256.836,29.009h3.945v3.944h-3.945V29.009z M256.836,32.954
			h3.945v3.945h-3.945V32.954z M256.836,36.899h3.945v3.944h-3.945V36.899z M256.836,40.843h3.945v3.944h-3.945V40.843z
			 M260.781,13.231h3.943v3.945h-3.943V13.231z M260.781,17.176h3.943v3.944h-3.943V17.176z M260.781,25.065h3.943v3.944h-3.943
			V25.065z M260.781,29.009h3.943v3.944h-3.943V29.009z M264.725,13.231h3.945v3.945h-3.945V13.231z M264.725,17.176h3.945v3.944
			h-3.945V17.176z M264.725,25.065h3.945v3.944h-3.945V25.065z M264.725,29.009h3.945v3.944h-3.945V29.009z M268.67,13.231h3.944
			v3.945h-3.944V13.231z M268.67,17.176h3.944v3.944h-3.944V17.176z M268.67,25.065h3.944v3.944h-3.944V25.065z M268.67,29.009
			h3.944v3.944h-3.944V29.009z M272.614,13.231h3.944v3.945h-3.944V13.231z M272.614,17.176h3.944v3.944h-3.944V17.176z
			 M272.614,21.121h3.944v3.944h-3.944V21.121z M272.614,25.065h3.944v3.944h-3.944V25.065z M272.614,29.009h3.944v3.944h-3.944
			V29.009z M272.614,32.954h3.944v3.945h-3.944V32.954z M272.614,36.899h3.944v3.944h-3.944V36.899z M272.614,40.843h3.944v3.944
			h-3.944V40.843z M276.559,13.231h3.945v3.945h-3.945V13.231z M276.559,17.176h3.945v3.944h-3.945V17.176z M276.559,21.121h3.945
			v3.944h-3.945V21.121z M276.559,25.065h3.945v3.944h-3.945V25.065z M276.559,29.009h3.945v3.944h-3.945V29.009z M276.559,32.954
			h3.945v3.945h-3.945V32.954z M276.559,36.899h3.945v3.944h-3.945V36.899z M276.559,40.843h3.945v3.944h-3.945V40.843z"/>
		<path style="fill:#F6F6F6;" d="M155.975,55.374h3.943v3.945h-3.943V55.374z M155.975,59.319h3.943v3.944h-3.943V59.319z
			 M155.975,63.263h3.943v3.944h-3.943V63.263z M155.975,67.208h3.943v3.944h-3.943V67.208z M155.975,71.152h3.943v3.944h-3.943
			V71.152z M155.975,75.096h3.943v3.945h-3.943V75.096z M155.975,79.042h3.943v3.944h-3.943V79.042z M155.975,82.986h3.943v3.944
			h-3.943V82.986z M159.918,55.374h3.945v3.945h-3.945V55.374z M159.918,59.319h3.945v3.944h-3.945V59.319z M159.918,63.263h3.945
			v3.944h-3.945V63.263z M159.918,67.208h3.945v3.944h-3.945V67.208z M159.918,71.152h3.945v3.944h-3.945V71.152z M159.918,75.096
			h3.945v3.945h-3.945V75.096z M159.918,79.042h3.945v3.944h-3.945V79.042z M159.918,82.986h3.945v3.944h-3.945V82.986z
			 M163.863,55.374h3.944v3.945h-3.944V55.374z M163.863,59.319h3.944v3.944h-3.944V59.319z M163.863,79.042h3.944v3.944h-3.944
			V79.042z M163.863,82.986h3.944v3.944h-3.944V82.986z M167.808,55.374h3.944v3.945h-3.944V55.374z M167.808,59.319h3.944v3.944
			h-3.944V59.319z M167.808,79.042h3.944v3.944h-3.944V79.042z M167.808,82.986h3.944v3.944h-3.944V82.986z M171.752,55.374h3.945
			v3.945h-3.945V55.374z M171.752,59.319h3.945v3.944h-3.945V59.319z M171.752,79.042h3.945v3.944h-3.945V79.042z M171.752,82.986
			h3.945v3.944h-3.945V82.986z M175.697,55.374h3.944v3.945h-3.944V55.374z M175.697,59.319h3.944v3.944h-3.944V59.319z
			 M175.697,63.263h3.944v3.944h-3.944V63.263z M175.697,67.208h3.944v3.944h-3.944V67.208z M175.697,71.152h3.944v3.944h-3.944
			V71.152z M175.697,75.096h3.944v3.945h-3.944V75.096z M175.697,79.042h3.944v3.944h-3.944V79.042z M175.697,82.986h3.944v3.944
			h-3.944V82.986z M179.642,59.319h3.944v3.944h-3.944V59.319z M179.642,63.263h3.944v3.944h-3.944V63.263z M179.642,67.208h3.944
			v3.944h-3.944V67.208z M179.642,71.152h3.944v3.944h-3.944V71.152z M179.642,75.096h3.944v3.945h-3.944V75.096z M179.642,79.042
			h3.944v3.944h-3.944V79.042z"/>
		<path style="fill:#F6F6F6;" d="M188.279,55.374h3.945v3.945h-3.945V55.374z M188.279,59.319h3.945v3.944h-3.945V59.319z
			 M188.279,63.263h3.945v3.944h-3.945V63.263z M188.279,75.096h3.945v3.945h-3.945V75.096z M188.279,79.042h3.945v3.944h-3.945
			V79.042z M188.279,82.986h3.945v3.944h-3.945V82.986z M192.225,55.374h3.944v3.945h-3.944V55.374z M192.225,59.319h3.944v3.944
			h-3.944V59.319z M192.225,63.263h3.944v3.944h-3.944V63.263z M192.225,75.096h3.944v3.945h-3.944V75.096z M192.225,79.042h3.944
			v3.944h-3.944V79.042z M192.225,82.986h3.944v3.944h-3.944V82.986z M196.169,55.374h3.944v3.945h-3.944V55.374z M196.169,59.319
			h3.944v3.944h-3.944V59.319z M196.169,79.042h3.944v3.944h-3.944V79.042z M196.169,82.986h3.944v3.944h-3.944V82.986z
			 M200.113,55.374h3.945v3.945h-3.945V55.374z M200.113,59.319h3.945v3.944h-3.945V59.319z M200.113,67.208h3.945v3.944h-3.945
			V67.208z M200.113,71.152h3.945v3.944h-3.945V71.152z M200.113,79.042h3.945v3.944h-3.945V79.042z M200.113,82.986h3.945v3.944
			h-3.945V82.986z M204.059,55.374h3.943v3.945h-3.943V55.374z M204.059,59.319h3.943v3.944h-3.943V59.319z M204.059,67.208h3.943
			v3.944h-3.943V67.208z M204.059,71.152h3.943v3.944h-3.943V71.152z M204.059,79.042h3.943v3.944h-3.943V79.042z M204.059,82.986
			h3.943v3.944h-3.943V82.986z M208.002,55.374h3.945v3.945h-3.945V55.374z M208.002,59.319h3.945v3.944h-3.945V59.319z
			 M208.002,63.263h3.945v3.944h-3.945V63.263z M208.002,67.208h3.945v3.944h-3.945V67.208z M208.002,71.152h3.945v3.944h-3.945
			V71.152z M208.002,75.096h3.945v3.945h-3.945V75.096z M208.002,79.042h3.945v3.944h-3.945V79.042z M208.002,82.986h3.945v3.944
			h-3.945V82.986z M211.947,55.374h3.944v3.945h-3.944V55.374z M211.947,59.319h3.944v3.944h-3.944V59.319z M211.947,63.263h3.944
			v3.944h-3.944V63.263z M211.947,75.096h3.944v3.945h-3.944V75.096z M211.947,79.042h3.944v3.944h-3.944V79.042z M211.947,82.986
			h3.944v3.944h-3.944V82.986z"/>
		<path style="fill:#F6F6F6;" d="M220.586,55.374h3.943v3.945h-3.943V55.374z M220.586,59.319h3.943v3.944h-3.943V59.319z
			 M220.586,63.263h3.943v3.944h-3.943V63.263z M220.586,67.208h3.943v3.944h-3.943V67.208z M220.586,71.152h3.943v3.944h-3.943
			V71.152z M220.586,75.096h3.943v3.945h-3.943V75.096z M224.529,55.374h3.945v3.945h-3.945V55.374z M224.529,59.319h3.945v3.944
			h-3.945V59.319z M224.529,63.263h3.945v3.944h-3.945V63.263z M224.529,67.208h3.945v3.944h-3.945V67.208z M224.529,71.152h3.945
			v3.944h-3.945V71.152z M224.529,75.096h3.945v3.945h-3.945V75.096z M224.529,79.042h3.945v3.944h-3.945V79.042z M228.475,75.096
			h3.944v3.945h-3.944V75.096z M228.475,79.042h3.944v3.944h-3.944V79.042z M228.475,82.986h3.944v3.944h-3.944V82.986z
			 M232.419,79.042h3.944v3.944h-3.944V79.042z M232.419,82.986h3.944v3.944h-3.944V82.986z M236.363,75.096h3.945v3.945h-3.945
			V75.096z M236.363,79.042h3.945v3.944h-3.945V79.042z M236.363,82.986h3.945v3.944h-3.945V82.986z M240.309,55.374h3.944v3.945
			h-3.944V55.374z M240.309,59.319h3.944v3.944h-3.944V59.319z M240.309,63.263h3.944v3.944h-3.944V63.263z M240.309,67.208h3.944
			v3.944h-3.944V67.208z M240.309,71.152h3.944v3.944h-3.944V71.152z M240.309,75.096h3.944v3.945h-3.944V75.096z M240.309,79.042
			h3.944v3.944h-3.944V79.042z M244.253,55.374h3.944v3.945h-3.944V55.374z M244.253,59.319h3.944v3.944h-3.944V59.319z
			 M244.253,63.263h3.944v3.944h-3.944V63.263z M244.253,67.208h3.944v3.944h-3.944V67.208z M244.253,71.152h3.944v3.944h-3.944
			V71.152z M244.253,75.096h3.944v3.945h-3.944V75.096z"/>
		<path style="fill:#F6F6F6;" d="M252.892,55.374h3.944v3.945h-3.944V55.374z M252.892,59.319h3.944v3.944h-3.944V59.319z
			 M252.892,63.263h3.944v3.944h-3.944V63.263z M252.892,75.096h3.944v3.945h-3.944V75.096z M252.892,79.042h3.944v3.944h-3.944
			V79.042z M252.892,82.986h3.944v3.944h-3.944V82.986z M256.836,55.374h3.945v3.945h-3.945V55.374z M256.836,59.319h3.945v3.944
			h-3.945V59.319z M256.836,63.263h3.945v3.944h-3.945V63.263z M256.836,75.096h3.945v3.945h-3.945V75.096z M256.836,79.042h3.945
			v3.944h-3.945V79.042z M256.836,82.986h3.945v3.944h-3.945V82.986z M260.781,55.374h3.943v3.945h-3.943V55.374z M260.781,59.319
			h3.943v3.944h-3.943V59.319z M260.781,79.042h3.943v3.944h-3.943V79.042z M260.781,82.986h3.943v3.944h-3.943V82.986z
			 M264.725,55.374h3.945v3.945h-3.945V55.374z M264.725,59.319h3.945v3.944h-3.945V59.319z M264.725,67.208h3.945v3.944h-3.945
			V67.208z M264.725,71.152h3.945v3.944h-3.945V71.152z M264.725,79.042h3.945v3.944h-3.945V79.042z M264.725,82.986h3.945v3.944
			h-3.945V82.986z M268.67,55.374h3.944v3.945h-3.944V55.374z M268.67,59.319h3.944v3.944h-3.944V59.319z M268.67,67.208h3.944
			v3.944h-3.944V67.208z M268.67,71.152h3.944v3.944h-3.944V71.152z M268.67,79.042h3.944v3.944h-3.944V79.042z M268.67,82.986
			h3.944v3.944h-3.944V82.986z M272.614,55.374h3.944v3.945h-3.944V55.374z M272.614,59.319h3.944v3.944h-3.944V59.319z
			 M272.614,63.263h3.944v3.944h-3.944V63.263z M272.614,67.208h3.944v3.944h-3.944V67.208z M272.614,71.152h3.944v3.944h-3.944
			V71.152z M272.614,75.096h3.944v3.945h-3.944V75.096z M272.614,79.042h3.944v3.944h-3.944V79.042z M272.614,82.986h3.944v3.944
			h-3.944V82.986z M276.559,55.374h3.945v3.945h-3.945V55.374z M276.559,59.319h3.945v3.944h-3.945V59.319z M276.559,63.263h3.945
			v3.944h-3.945V63.263z M276.559,75.096h3.945v3.945h-3.945V75.096z M276.559,79.042h3.945v3.944h-3.945V79.042z M276.559,82.986
			h3.945v3.944h-3.945V82.986z"/>
		<path style="fill:#F6F6F6;" d="M285.197,55.374h3.944v3.945h-3.944V55.374z M285.197,59.319h3.944v3.944h-3.944V59.319z
			 M285.197,63.263h3.944v3.944h-3.944V63.263z M285.197,67.208h3.944v3.944h-3.944V67.208z M285.197,71.152h3.944v3.944h-3.944
			V71.152z M285.197,75.096h3.944v3.945h-3.944V75.096z M285.197,79.042h3.944v3.944h-3.944V79.042z M285.197,82.986h3.944v3.944
			h-3.944V82.986z M289.142,55.374h3.944v3.945h-3.944V55.374z M289.142,59.319h3.944v3.944h-3.944V59.319z M289.142,63.263h3.944
			v3.944h-3.944V63.263z M289.142,67.208h3.944v3.944h-3.944V67.208z M289.142,71.152h3.944v3.944h-3.944V71.152z M289.142,75.096
			h3.944v3.945h-3.944V75.096z M289.142,79.042h3.944v3.944h-3.944V79.042z M289.142,82.986h3.944v3.944h-3.944V82.986z
			 M293.086,79.042h3.945v3.944h-3.945V79.042z M293.086,82.986h3.945v3.944h-3.945V82.986z M297.031,79.042h3.944v3.944h-3.944
			V79.042z M297.031,82.986h3.944v3.944h-3.944V82.986z M300.976,79.042h3.944v3.944h-3.944V79.042z M300.976,82.986h3.944v3.944
			h-3.944V82.986z M304.92,79.042h3.945v3.944h-3.945V79.042z M304.92,82.986h3.945v3.944h-3.945V82.986z M308.865,79.042h3.943
			v3.944h-3.943V79.042z M308.865,82.986h3.943v3.944h-3.943V82.986z"/>
		<path style="fill:#F6F6F6;" d="M317.503,55.374h3.944v3.945h-3.944V55.374z M317.503,59.319h3.944v3.944h-3.944V59.319z
			 M317.503,63.263h3.944v3.944h-3.944V63.263z M317.503,67.208h3.944v3.944h-3.944V67.208z M317.503,71.152h3.944v3.944h-3.944
			V71.152z M317.503,75.096h3.944v3.945h-3.944V75.096z M317.503,79.042h3.944v3.944h-3.944V79.042z M317.503,82.986h3.944v3.944
			h-3.944V82.986z M321.447,55.374h3.945v3.945h-3.945V55.374z M321.447,59.319h3.945v3.944h-3.945V59.319z M321.447,63.263h3.945
			v3.944h-3.945V63.263z M321.447,67.208h3.945v3.944h-3.945V67.208z M321.447,71.152h3.945v3.944h-3.945V71.152z M321.447,75.096
			h3.945v3.945h-3.945V75.096z M321.447,79.042h3.945v3.944h-3.945V79.042z M321.447,82.986h3.945v3.944h-3.945V82.986z
			 M325.393,55.374h3.943v3.945h-3.943V55.374z M325.393,59.319h3.943v3.944h-3.943V59.319z M325.393,79.042h3.943v3.944h-3.943
			V79.042z M325.393,82.986h3.943v3.944h-3.943V82.986z M329.336,55.374h3.945v3.945h-3.945V55.374z M329.336,59.319h3.945v3.944
			h-3.945V59.319z M329.336,79.042h3.945v3.944h-3.945V79.042z M329.336,82.986h3.945v3.944h-3.945V82.986z M333.281,55.374h3.944
			v3.945h-3.944V55.374z M333.281,59.319h3.944v3.944h-3.944V59.319z M333.281,79.042h3.944v3.944h-3.944V79.042z M333.281,82.986
			h3.944v3.944h-3.944V82.986z M337.226,55.374h3.944v3.945h-3.944V55.374z M337.226,59.319h3.944v3.944h-3.944V59.319z
			 M337.226,63.263h3.944v3.944h-3.944V63.263z M337.226,67.208h3.944v3.944h-3.944V67.208z M337.226,71.152h3.944v3.944h-3.944
			V71.152z M337.226,75.096h3.944v3.945h-3.944V75.096z M337.226,79.042h3.944v3.944h-3.944V79.042z M337.226,82.986h3.944v3.944
			h-3.944V82.986z M341.17,55.374h3.945v3.945h-3.945V55.374z M341.17,59.319h3.945v3.944h-3.945V59.319z M341.17,63.263h3.945
			v3.944h-3.945V63.263z M341.17,67.208h3.945v3.944h-3.945V67.208z M341.17,71.152h3.945v3.944h-3.945V71.152z M341.17,75.096
			h3.945v3.945h-3.945V75.096z M341.17,79.042h3.945v3.944h-3.945V79.042z M341.17,82.986h3.945v3.944h-3.945V82.986z"/>
		<path style="fill:#F6F6F6;" d="M349.809,55.374h3.945v3.945h-3.945V55.374z M349.809,59.319h3.945v3.944h-3.945V59.319z
			 M349.809,63.263h3.945v3.944h-3.945V63.263z M349.809,67.208h3.945v3.944h-3.945V67.208z M349.809,71.152h3.945v3.944h-3.945
			V71.152z M349.809,75.096h3.945v3.945h-3.945V75.096z M349.809,79.042h3.945v3.944h-3.945V79.042z M349.809,82.986h3.945v3.944
			h-3.945V82.986z M353.754,55.374h3.944v3.945h-3.944V55.374z M353.754,59.319h3.944v3.944h-3.944V59.319z M353.754,63.263h3.944
			v3.944h-3.944V63.263z M353.754,67.208h3.944v3.944h-3.944V67.208z M353.754,71.152h3.944v3.944h-3.944V71.152z M353.754,75.096
			h3.944v3.945h-3.944V75.096z M353.754,79.042h3.944v3.944h-3.944V79.042z M353.754,82.986h3.944v3.944h-3.944V82.986z
			 M357.698,55.374h3.944v3.945h-3.944V55.374z M357.698,59.319h3.944v3.944h-3.944V59.319z M357.698,71.152h3.944v3.944h-3.944
			V71.152z M357.698,75.096h3.944v3.945h-3.944V75.096z M361.643,55.374h3.945v3.945h-3.945V55.374z M361.643,59.319h3.945v3.944
			h-3.945V59.319z M361.643,71.152h3.945v3.944h-3.945V71.152z M361.643,75.096h3.945v3.945h-3.945V75.096z M365.588,55.374h3.943
			v3.945h-3.943V55.374z M365.588,59.319h3.943v3.944h-3.943V59.319z M365.588,71.152h3.943v3.944h-3.943V71.152z M365.588,75.096
			h3.943v3.945h-3.943V75.096z M369.531,55.374h3.945v3.945h-3.945V55.374z M369.531,59.319h3.945v3.944h-3.945V59.319z
			 M369.531,63.263h3.945v3.944h-3.945V63.263z M369.531,67.208h3.945v3.944h-3.945V67.208z M369.531,71.152h3.945v3.944h-3.945
			V71.152z M369.531,75.096h3.945v3.945h-3.945V75.096z M373.477,55.374h3.943v3.945h-3.943V55.374z M373.477,59.319h3.943v3.944
			h-3.943V59.319z M373.477,63.263h3.943v3.944h-3.943V63.263z M373.477,67.208h3.943v3.944h-3.943V67.208z M373.477,71.152h3.943
			v3.944h-3.943V71.152z M373.477,75.096h3.943v3.945h-3.943V75.096z"/>
	</g>
</g>
</svg>
