<svg xmlns="http://www.w3.org/2000/svg" xmlns:xlink="http://www.w3.org/1999/xlink" preserveAspectRatio="xMidYMid" width="13" height="13" viewBox="0 0 13 13">
  <defs>
    <style>
      .cls-1 {
        fill: #fff;
        fill-rule: evenodd;
      }
    </style>
  </defs>
  <path d="M13.004,10.467 C13.004,10.193 12.894,9.920 12.697,9.723 L9.480,6.505 L12.697,3.288 C12.894,3.091 13.004,2.817 13.004,2.544 C13.004,2.270 12.894,1.997 12.697,1.800 L11.209,0.312 C11.012,0.115 10.739,0.005 10.465,0.005 C10.191,0.005 9.918,0.115 9.721,0.312 L6.504,3.529 L3.286,0.312 C3.089,0.115 2.816,0.005 2.542,0.005 C2.269,0.005 1.995,0.115 1.798,0.312 L0.310,1.800 C0.113,1.997 0.003,2.270 0.003,2.544 C0.003,2.817 0.113,3.091 0.310,3.288 L3.527,6.505 L0.310,9.723 C0.113,9.920 0.003,10.193 0.003,10.467 C0.003,10.740 0.113,11.014 0.310,11.211 L1.798,12.699 C1.995,12.896 2.269,13.006 2.542,13.006 C2.816,13.006 3.089,12.896 3.286,12.699 L6.504,9.482 L9.721,12.699 C9.918,12.896 10.191,13.006 10.465,13.006 C10.739,13.006 11.012,12.896 11.209,12.699 L12.697,11.211 C12.894,11.014 13.004,10.740 13.004,10.467 Z" class="cls-1"/>
</svg>
