<svg xmlns="http://www.w3.org/2000/svg" xmlns:xlink="http://www.w3.org/1999/xlink" preserveAspectRatio="xMidYMid" width="18" height="15" viewBox="0 0 18 15">
  <defs>
    <style>
      .cls-1 {
        fill: #000;
        filter: url(#color-overlay-1);
        fill-rule: evenodd;
      }
    </style>

    <filter id="color-overlay-1" filterUnits="userSpaceOnUse">
      <feFlood flood-color="#fff"/>
      <feComposite operator="in" in2="SourceGraphic"/>
      <feBlend in2="SourceGraphic" result="solidFill"/>
    </filter>
  </defs>
  <path d="M18.003,12.750 C18.003,12.340 17.663,12.000 17.253,12.000 L0.750,12.000 C0.340,12.000 0.000,12.340 0.000,12.750 L0.000,14.250 C0.000,14.660 0.340,15.000 0.750,15.000 L17.253,15.000 C17.663,15.000 18.003,14.660 18.003,14.250 L18.003,12.750 ZM18.003,6.751 C18.003,6.341 17.663,6.001 17.253,6.001 L0.750,6.001 C0.340,6.001 0.000,6.341 0.000,6.751 L0.000,8.251 C0.000,8.661 0.340,9.001 0.750,9.001 L17.253,9.001 C17.663,9.001 18.003,8.661 18.003,8.251 L18.003,6.751 ZM18.003,0.752 C18.003,0.342 17.663,0.002 17.253,0.002 L0.750,0.002 C0.340,0.002 0.000,0.342 0.000,0.752 L0.000,2.252 C0.000,2.662 0.340,3.002 0.750,3.002 L17.253,3.002 C17.663,3.002 18.003,2.662 18.003,2.252 L18.003,0.752 Z" class="cls-1"/>
</svg>
