<svg xmlns="http://www.w3.org/2000/svg" xmlns:xlink="http://www.w3.org/1999/xlink" preserveAspectRatio="xMidYMid" width="20" height="20" viewBox="0 0 20 20">
  <defs>
    <style>
      .cls-1 {
        fill: #fff;
        fill-rule: evenodd;
      }
    </style>
  </defs>
  <path d="M16.670,6.279 C16.305,6.839 15.836,7.320 15.302,7.698 C15.315,7.815 15.315,7.932 15.315,8.049 C15.315,11.667 12.554,15.831 7.528,15.831 C5.978,15.831 4.545,15.376 3.334,14.608 C3.542,14.634 3.764,14.647 3.985,14.647 C5.274,14.647 6.447,14.204 7.384,13.475 C6.186,13.449 5.183,12.656 4.832,11.575 C5.001,11.602 5.170,11.628 5.340,11.628 C5.587,11.628 5.769,11.589 6.004,11.523 C4.753,11.276 3.751,10.170 3.751,8.843 C3.751,8.830 3.751,8.817 3.751,8.817 C4.167,9.012 4.597,9.142 5.053,9.155 C4.311,8.660 3.868,7.828 3.868,6.878 C3.868,6.383 4.011,5.902 4.246,5.498 C5.600,7.164 7.619,8.244 9.898,8.361 C9.846,8.166 9.833,7.945 9.833,7.737 C9.833,6.227 11.057,5.004 12.567,5.004 C13.349,5.004 14.065,5.329 14.560,5.863 C15.185,5.745 15.771,5.511 16.305,5.199 C16.097,5.837 15.667,6.383 15.094,6.722 C15.654,6.644 16.175,6.500 16.670,6.279 ZM20.004,3.755 C20.004,1.685 18.324,0.007 16.253,0.007 L3.751,0.007 C1.680,0.007 0.000,1.685 0.000,3.755 L0.000,16.247 C0.000,18.317 1.680,19.995 3.751,19.995 L16.253,19.995 C18.324,19.995 20.004,18.317 20.004,16.247 L20.004,3.755 Z" class="cls-1"/>
</svg>
